Coordinates
version=1
nRows=5
nColumns=63
inDegrees=yes

Units are S.I. units (second, meters, Newtons, ...)
If the header above contains a line with 'inDegrees', this indicates whether rotational values are in degrees (yes) or radians (no).

endheader
time	pelvis_tilt	pelvis_list	pelvis_rotation	pelvis_tx	pelvis_ty	pelvis_tz	hip_flexion_r	hip_adduction_r	hip_rotation_r	knee_angle_r	knee_angle_r_beta	ankle_angle_r	subtalar_angle_r	mtp_angle_r	hip_flexion_l	hip_adduction_l	hip_rotation_l	knee_angle_l	knee_angle_l_beta	ankle_angle_l	subtalar_angle_l	mtp_angle_l	L5_S1_Flex_Ext	L5_S1_Lat_Bending	L5_S1_axial_rotation	L4_L5_Flex_Ext	L4_L5_Lat_Bending	L4_L5_axial_rotation	L3_L4_Flex_Ext	L3_L4_Lat_Bending	L3_L4_axial_rotation	L2_L3_Flex_Ext	L2_L3_Lat_Bending	L2_L3_axial_rotation	L1_L2_Flex_Ext	L1_L2_Lat_Bending	L1_L2_axial_rotation	L1_T12_Flex_Ext	L1_T12_Lat_Bending	L1_T12_axial_rotation	Abs_r3	Abs_r2	Abs_r1	Abs_t1	Abs_t2	neck_flexion	neck_bending	neck_rotation	arm_flex_r	arm_add_r	arm_rot_r	elbow_flex_r	pro_sup_r	wrist_flex_r	wrist_dev_r	arm_flex_l	arm_add_l	arm_rot_l	elbow_flex_l	pro_sup_l	wrist_flex_l	wrist_dev_l
      2.13461538	     -2.62015541	    -39.04489243	     98.11686015	      0.22207247	      0.29047773	      0.72586881	     39.40146916	     -5.97078857	      8.72801798	     20.34146276	      0.35502550	     24.14015408	    -13.52403053	      0.00000000	     36.09386539	      5.54381417	    -14.23604407	     12.46146414	      0.21749358	     22.17551060	      7.64355655	      0.00000000	     -0.07785501	     -1.37390885	      2.16673430	     -0.14458454	     -1.82729878	      2.30215519	     -0.12790800	     -3.34052199	      2.30215519	     -0.08898049	     -3.34052199	      1.89589251	     -0.07229616	     -2.80167494	      1.76047162	     -0.04448635	     -2.12818482	      1.62505072	     -0.55611056	    -15.54193175	     12.05072614	      0.00000000	      0.00000000	     11.59112490	      2.01916087	    -10.83421169	      7.66771731	     -5.10510537	     -6.41725975	     86.38932424	     88.21915745	     -7.63508616	      9.59794619	      6.65665013	    -17.73861767	     34.00311881	     75.84794176	     80.98925118	     -5.43875843	     27.87665219
      2.15384615	     -3.76218224	    -39.93811059	     96.97953546	      0.22275833	      0.28831798	      0.72614080	     40.94518998	     -6.34881102	     10.30145229	     21.47954813	      0.37488884	     24.57130969	    -14.28178867	      0.00000000	     37.00095541	      6.02814931	    -15.83458370	     12.83468802	      0.22400756	     22.35499665	      8.26416136	      0.00000000	     -0.03004014	     -1.57122023	      2.36436208	     -0.05578755	     -2.08972291	      2.51213471	     -0.04935295	     -3.82026488	      2.51213471	     -0.03433288	     -3.82026488	      2.06881682	     -0.02789528	     -3.20403230	      1.92104419	     -0.01716494	     -2.43382014	      1.77327156	     -0.21457374	    -17.77395754	     13.14987259	      0.00000000	      0.00000000	     12.50220902	      2.48395410	    -14.83817672	      7.09988214	     -4.12663789	     -7.54670682	     88.17973915	     88.29353110	     -7.48601269	     10.78449158	      7.23956761	    -18.43677299	     34.72025438	     77.02130123	     83.30943315	     -3.57847107	     30.09985064
      2.17307692	     -4.84174523	    -40.43703131	     95.74042211	      0.22304414	      0.28677896	      0.72612391	     41.91886281	     -6.54838584	     12.08158696	     22.33303087	      0.38978492	     24.88054045	    -15.11541509	      0.00000000	     37.24432545	      6.28505251	    -18.80706305	     12.79205876	      0.22326354	     22.64951373	     10.74576333	      0.00000000	     -0.02584394	     -1.71845581	      2.48361450	     -0.04799479	     -2.28554623	      2.63884041	     -0.04245901	     -4.17825346	      2.63884041	     -0.02953704	     -4.17825346	      2.17316269	     -0.02399869	     -3.50427509	      2.01793678	     -0.01476723	     -2.66188805	      1.86271088	     -0.18460070	    -19.43951585	     13.81311877	      0.00000000	      0.00000000	     13.06642881	      2.98949779	    -16.33556133	      6.92015457	     -3.36494079	     -7.90521914	     89.40825115	     88.32067973	     -7.10306815	     11.11838576	      7.45274218	    -18.88720504	     34.78886209	     77.73716788	     85.13232353	     -0.88878249	     30.58564872
      2.19230769	     -5.40828851	    -40.90991109	     95.26186949	      0.22221025	      0.28532120	      0.72648655	     42.74407061	     -6.84733563	     12.69212438	     23.00990897	      0.40159867	     25.30952855	    -15.22779989	      0.00000000	     37.74877886	      6.61600491	    -19.61791377	     13.07547323	      0.22821006	     22.78957335	     10.91715495	      0.00000000	     -0.00333617	     -1.80811092	      2.51185637	     -0.00619560	     -2.40478753	      2.66884740	     -0.00548100	     -4.39624089	      2.66884740	     -0.00381291	     -4.39624089	      2.19787433	     -0.00309797	     -3.68709979	      2.04088330	     -0.00190629	     -2.80076382	      1.88389228	     -0.02382994	    -20.45371236	     13.97019159	      0.00000000	      0.00000000	     13.04178956	      3.56599207	    -17.44505034	      6.58485823	     -2.85562957	     -8.14368816	     90.66243958	     88.27695115	     -7.22782591	     11.89939026	      7.73937677	    -19.14574920	     35.54705358	     78.03628125	     86.45634259	      0.23630309	     30.40627881
      2.21153846	     -6.35927464	    -41.24012111	     94.22866958	      0.22172992	      0.28419089	      0.72690523	     43.44440233	     -7.17535005	     13.72381427	     23.51175114	      0.41035747	     25.71237148	    -15.24130869	      0.00000000	     37.95964855	      7.05396984	    -20.84563304	     13.03791770	      0.22755459	     22.94608155	     11.31850515	      0.00000000	      0.00859500	     -1.92975229	      2.56553144	      0.01596177	     -2.56657054	      2.72587716	      0.01412073	     -4.69199971	      2.72587716	      0.00982323	     -4.69199971	      2.24484001	      0.00798132	     -3.93515087	      2.08449430	      0.00491118	     -2.98918629	      1.92414858	      0.06139322	    -21.82974383	     14.26871621	      0.00000000	      0.00000000	     12.85792285	      4.57084762	    -18.43711047	      6.32219454	     -2.32720587	     -8.25136052	     91.63244717	     88.15116254	     -7.31557241	     12.84415848	      7.96506524	    -19.39568299	     36.00477788	     78.08789628	     87.53616383	      1.95021745	     29.87190261
